<svg xmlns="http://www.w3.org/2000/svg" width="46.763" height="46.763" viewBox="0 0 46.763 46.763">
  <g id="Group_1398" data-name="Group 1398" transform="translate(-377.8 -127.8)">
    <circle id="Ellipse_106" data-name="Ellipse 106" cx="23.382" cy="23.382" r="23.382" transform="translate(377.8 127.8)"/>
    <g id="Group_1360" data-name="Group 1360" transform="translate(387.136 135.337)">
      <g id="Group_1359" data-name="Group 1359" transform="translate(0 0)">
        <path id="Path_3529" data-name="Path 3529" d="M449.2,204.374l.084.084c.251.184.451.451.7.652a4.567,4.567,0,0,0,2.624,1.02,4.447,4.447,0,0,0,4.663-3.944,2.352,2.352,0,0,0,.017-.334V180.859c0-.468,0-.468.468-.468h3.192a.482.482,0,0,1,.3.05l.017.017a.371.371,0,0,1,.084.184,7.344,7.344,0,0,0,2.958,4.529c.1.067.184.167.267.234.067.05.134.117.2.167a5.167,5.167,0,0,1,.652.552,7.413,7.413,0,0,0,2.908,1.487c.1.017.2.017.267.117l.017.017c.067.067.05.15.05.234v3.694c0,.284-.033.3-.318.3a12.056,12.056,0,0,1-2.674-.318,12.826,12.826,0,0,1-4.2-1.805c-.067-.05-.134-.134-.217-.1s-.05.167-.05.234c0,3.476.017,6.953,0,10.412a9.941,9.941,0,0,1-8.774,9.877,9.858,9.858,0,0,1-5.649-1,6.686,6.686,0,0,1-.819-.5c-.084-.067-.167-.15-.251-.217a6.672,6.672,0,0,1-1.437-1.838,9.2,9.2,0,0,1-1.2-3.359,9.451,9.451,0,0,1-.134-2.056,9.743,9.743,0,0,1,2.306-5.916,9.859,9.859,0,0,1,4.479-3.042,9.608,9.608,0,0,1,2.29-.468,1.907,1.907,0,0,1,.435-.033.3.3,0,0,1,.2.05l.017.017a.494.494,0,0,1,.033.217v3.894c0,.134-.067.167-.184.134a4.467,4.467,0,0,0-1.053-.167,4.028,4.028,0,0,0-1.6.234,4.446,4.446,0,0,0-1,7.922A2.51,2.51,0,0,1,449.2,204.374Z" transform="translate(-441.388 -179.136)" fill="#fff"/>
        <path id="Path_3530" data-name="Path 3530" d="M461,245.392c.067-.017.1.033.15.067a10,10,0,0,0,3.627,1.337,9.7,9.7,0,0,0,1.972.117,9.835,9.835,0,0,0,9.46-9.359c.017-.384.017-.769.017-1.153V226.255c.084-.017.117.033.167.067a13.12,13.12,0,0,0,3.827,1.788,13.346,13.346,0,0,0,2.306.418c.334.033.652.017.986.05.15.017.15,0,.15-.15V224.4c.3.033.585.1.886.117.184.017.368.033.551.033.084,0,.134.033.117.117v5.081c0,.134,0,.15-.15.15a11.624,11.624,0,0,1-1.521-.1,12.507,12.507,0,0,1-2.992-.769,13.013,13.013,0,0,1-2.607-1.387c-.05-.033-.1-.067-.184-.117v10.847a9.614,9.614,0,0,1-1.488,5.231,9.9,9.9,0,0,1-15.142,1.972A.643.643,0,0,0,461,245.392Z" transform="translate(-456.431 -215.792)" fill="#ec1555"/>
        <path id="Path_3531" data-name="Path 3531" d="M492.75,174.165c-.067,0-.134.017-.2.017h-3.426c-.267,0-.267,0-.267.251v20.875a4.55,4.55,0,0,1-.184,1.421,4.528,4.528,0,0,1-7.822,1.571.365.365,0,0,1-.05-.084,5.991,5.991,0,0,0,1.053.351,4.523,4.523,0,0,0,5.382-3.694,3.962,3.962,0,0,0,.05-.769V173.179c0-.318-.05-.284.284-.284h4.947c.167,0,.167,0,.167.167A6.3,6.3,0,0,0,492.75,174.165Z" transform="translate(-472.922 -172.894)" fill="#0cbac6"/>
        <path id="Path_3532" data-name="Path 3532" d="M444.882,242.68a9.928,9.928,0,0,0-9.293,7.22,9.566,9.566,0,0,0-.334,1.955,9.422,9.422,0,0,0-.017,1.187,9.94,9.94,0,0,0,.7,3.192,9.543,9.543,0,0,0,1.989,3.075.23.23,0,0,1,.05.067,2.177,2.177,0,0,1-.518-.351,9.9,9.9,0,0,1-3.343-4.8,9.7,9.7,0,0,1-.418-2.072,9.456,9.456,0,0,1-.017-1.538,9.83,9.83,0,0,1,6.5-8.607,10.059,10.059,0,0,1,2.624-.552,9.568,9.568,0,0,1,1.955.05c.084.017.134.033.134.134C444.9,241.961,444.9,242.312,444.882,242.68Z" transform="translate(-433.661 -229.977)" fill="#0cbac6"/>
        <path id="Path_3533" data-name="Path 3533" d="M468.18,261.547a3.851,3.851,0,0,1-1.053-.735,4.453,4.453,0,0,1-1.37-2.741,4.5,4.5,0,0,1,5.682-4.847.236.236,0,0,0,.15.017.412.412,0,0,0,.017-.2v-3.794a.816.816,0,0,1,.017-.2,8.473,8.473,0,0,1,1.454.067c.084.017.1.05.1.117v5.148a.411.411,0,0,1-.017.2c-.217-.033-.435-.1-.668-.134a4.412,4.412,0,0,0-3.493.936,4.277,4.277,0,0,0-1.638,2.774,4.445,4.445,0,0,0,.735,3.326C468.114,261.447,468.147,261.5,468.18,261.547Z" transform="translate(-460.369 -236.31)" fill="#ec1555"/>
        <path id="Path_3534" data-name="Path 3534" d="M555.709,185.464a6.1,6.1,0,0,1-1.3-1.053,7.438,7.438,0,0,1-2.006-3.861v-.033c.451-.033.9,0,1.37-.017.083,0,.117.033.117.117v.1a6.972,6.972,0,0,0,.969,3.543,8.18,8.18,0,0,0,.769,1.1A.094.094,0,0,1,555.709,185.464Z" transform="translate(-532.555 -179.229)" fill="#ec1555"/>
        <path id="Path_3535" data-name="Path 3535" d="M577.244,213.356a7.52,7.52,0,0,1-3.426-1.738,2.473,2.473,0,0,1-.418-.418.152.152,0,0,1,.117.05,7.112,7.112,0,0,0,2.524.886,5.594,5.594,0,0,0,1.053.084c.15,0,.15,0,.15.15C577.261,212.7,577.244,213.022,577.244,213.356Z" transform="translate(-550.045 -204.798)" fill="#0cbac6"/>
      </g>
    </g>
  </g>
</svg>
