<svg xmlns="http://www.w3.org/2000/svg" width="155.322" height="58.082" viewBox="0 0 155.322 58.082">
  <g id="Group_193" data-name="Group 193" transform="translate(-1236.271 -784)">
    <g id="Group_1" data-name="Group 1" transform="translate(1271.878 810.609)">
      <path id="Path_1" data-name="Path 1" d="M138.287,124.6a10.133,10.133,0,0,0-3.04-2.026,9.226,9.226,0,0,0-3.694-.753,9.539,9.539,0,0,0-9.593,9.6v9.6h2.945v-9.6a6.383,6.383,0,0,1,.528-2.569,6.754,6.754,0,0,1,3.55-3.55,6.522,6.522,0,0,1,5.138,0,6.754,6.754,0,0,1,3.55,3.55,6.4,6.4,0,0,1,.528,2.569v.57h2.945v-.57a9.5,9.5,0,0,0-2.858-6.818Z" transform="translate(-121.96 -118.567)" fill="#2e2f32"/>
      <path id="Path_2" data-name="Path 2" d="M193.561,124.6a9.642,9.642,0,1,0-6.818,16.4,9.351,9.351,0,0,0,4.34-1.057,9.941,9.941,0,0,0,2.307-1.634v2.691h2.945v-9.6a9.668,9.668,0,0,0-2.774-6.807Zm-.163,6.814a6.4,6.4,0,0,1-.528,2.569,6.754,6.754,0,0,1-3.55,3.55,6.511,6.511,0,0,1-5.138,0,6.754,6.754,0,0,1-3.55-3.55,6.512,6.512,0,0,1,0-5.138,6.754,6.754,0,0,1,3.55-3.55,6.332,6.332,0,0,1,2.569-.528,6.4,6.4,0,0,1,2.569.528,6.754,6.754,0,0,1,3.55,3.55A6.383,6.383,0,0,1,193.4,131.417Z" transform="translate(-156.174 -118.567)" fill="#2e2f32"/>
      <path id="Path_3" data-name="Path 3" d="M248.685,124.668a10.175,10.175,0,0,0-3.041-2.087,9.018,9.018,0,0,0-3.7-.772,9.313,9.313,0,0,0-3.785.772,9.588,9.588,0,0,0-3.033,2.09,10.086,10.086,0,0,0-2.026,3.04,9.226,9.226,0,0,0-.753,3.694V141H235.3v-9.6a6.383,6.383,0,0,1,.528-2.569,6.754,6.754,0,0,1,3.55-3.55,6.511,6.511,0,0,1,5.138,0,6.754,6.754,0,0,1,3.55,3.55,6.382,6.382,0,0,1,.528,2.569V141h2.945v-9.6a9.032,9.032,0,0,0-.771-3.7A10.014,10.014,0,0,0,248.685,124.668Z" transform="translate(-190.395 -118.56)" fill="#2e2f32"/>
      <path id="Path_4" data-name="Path 4" d="M300.6,128.611a9.522,9.522,0,0,0-2.8-2.109,9.31,9.31,0,0,0-2.315-.794l7.529-7.358-2.071-2.071L290.5,126.551V113.26H287.55V135.7H290.5v-5.017l2.36-2.2h.677a6.4,6.4,0,0,1,2.569.528,6.754,6.754,0,0,1,3.55,3.55,6.4,6.4,0,0,1,.528,2.569v.57h2.945v-.57a9.53,9.53,0,0,0-.673-3.554A9.8,9.8,0,0,0,300.6,128.611Z" transform="translate(-224.616 -113.26)" fill="#2e2f32"/>
      <path id="Path_5" data-name="Path 5" d="M347.5,131.417a6.383,6.383,0,0,1-.528,2.569,6.754,6.754,0,0,1-3.55,3.55,6.512,6.512,0,0,1-5.138,0,6.754,6.754,0,0,1-3.55-3.55,6.382,6.382,0,0,1-.528-2.569v-9.6H331.26v9.6a9.253,9.253,0,0,0,.753,3.694,10.11,10.11,0,0,0,2.026,3.04,9.537,9.537,0,0,0,3.033,2.094,9.547,9.547,0,0,0,8.126-.285,9.941,9.941,0,0,0,2.307-1.634v2.121a6.383,6.383,0,0,1-.528,2.569,6.754,6.754,0,0,1-3.55,3.55,6.512,6.512,0,0,1-5.138,0,6.754,6.754,0,0,1-3.55-3.55,6.382,6.382,0,0,1-.528-2.569v-.57h-2.945v.57a9.553,9.553,0,0,0,.749,3.782,9.452,9.452,0,0,0,5.062,5.062,9.564,9.564,0,0,0,13.374-8.844V121.824H347.5v9.593Z" transform="translate(-251.713 -118.567)" fill="#2e2f32"/>
      <path id="Path_6" data-name="Path 6" d="M402.7,131.666v.57a6.4,6.4,0,0,1-.528,2.569,6.754,6.754,0,0,1-3.55,3.55,6.522,6.522,0,0,1-5.138,0,6.754,6.754,0,0,1-3.55-3.55,6.32,6.32,0,0,1-.528-2.569V123.21H386.46v9.026a9.511,9.511,0,0,0,9.593,9.593,9.252,9.252,0,0,0,3.694-.753,10.157,10.157,0,0,0,3.04-2.026A9.555,9.555,0,0,0,404.881,136a9.4,9.4,0,0,0,.768-3.766v-.57H402.7Z" transform="translate(-285.934 -119.428)" fill="#2e2f32"/>
    </g>
    <path id="Path_7" data-name="Path 7" d="M79.708,44.673h0c-.844-1.041-6.541-1.573-9.935.81a.925.925,0,0,0-.456,1.049.756.756,0,0,0,.867.426,53.362,53.362,0,0,1,5.564-.372C69.7,48.88,62.092,48.93,56.2,48.926h-.483c-11.3,0-19.577-1.752-26.046-5.515a.915.915,0,0,0-1.247.171.9.9,0,0,0,.205,1.22c6.442,5.819,14.438,8.7,23.149,9.418,0,.049,0,.1,0,.148V75.652c0,.053,0,.106.008.16a3.614,3.614,0,0,0-2.128,3.116,3.261,3.261,0,0,0,1.1,2.372,3.519,3.519,0,0,0,0,5.64,3.253,3.253,0,0,0-1.1,2.372c0,2.2,2.448,3.934,5.568,3.934s5.568-1.725,5.568-3.934a3.261,3.261,0,0,0-1.1-2.372,3.519,3.519,0,0,0,0-5.64,3.253,3.253,0,0,0,1.1-2.372,3.619,3.619,0,0,0-2.128-3.116c0-.053.008-.106.008-.16V54.368c0-.061,0-.118-.008-.179a37.522,37.522,0,0,0,18.015-6.282A38.314,38.314,0,0,1,75.056,53.3a.757.757,0,0,0,.19.946.928.928,0,0,0,1.133-.167C79.579,51.393,80.529,45.688,79.708,44.673ZM54.423,55a1.225,1.225,0,0,1,.8-.239,1.239,1.239,0,0,1,.8.239v20.2a6.8,6.8,0,0,0-1.6,0V55Zm.8,22.636c1.756,0,2.923.775,2.923,1.285s-1.167,1.285-2.923,1.285S52.3,79.433,52.3,78.924,53.461,77.639,55.221,77.639Zm0,12.956c-1.756,0-2.923-.775-2.923-1.285s1.167-1.285,2.923-1.285,2.923.775,2.923,1.285S56.977,90.6,55.221,90.6Zm0-4.838c-1.855,0-3.238-.867-3.238-1.642s1.383-1.642,3.238-1.642,3.238.867,3.238,1.642S57.072,85.758,55.221,85.758Z" transform="translate(1208 740.753)" fill="#ffcd1c"/>
  </g>
</svg>
