<svg version="1.2" xmlns="http://www.w3.org/2000/svg" viewBox="0 0 156 59" width="156" height="59">
	<title>logo-svg</title>
	<style>
		.s0 { fill: #ffffff } 
		.s1 { fill: #ffcd1c } 
	</style>
	<g id="Group_193">
		<g id="Group_1">
			<path id="Path_1" class="s0" d="m53.1 34.1q0.6 0.8 1 1.7 0.3 0.8 0.5 1.8 0.2 0.9 0.2 1.9v0.5h-3v-0.5q0-0.4 0-0.7 0-0.3-0.1-0.6-0.1-0.4-0.2-0.7-0.1-0.3-0.2-0.6-0.2-0.6-0.6-1.1-0.4-0.6-0.8-1-0.5-0.5-1-0.8-0.5-0.4-1.1-0.7-0.6-0.2-1.3-0.4-0.6-0.1-1.3-0.1-0.7 0-1.3 0.1-0.7 0.2-1.3 0.4-0.6 0.3-1.1 0.7-0.5 0.3-1 0.8-0.4 0.4-0.8 1-0.4 0.5-0.6 1.1-0.2 0.3-0.3 0.6-0.1 0.3-0.1 0.7-0.1 0.3-0.1 0.6 0 0.3 0 0.7v9.6h-3v-9.6c0-1.3 0.2-2.6 0.7-3.7 0.5-1.2 1.2-2.2 2.1-3.1 0.9-0.9 2-1.6 3.1-2.1 1.2-0.5 2.4-0.7 3.7-0.7q0.5 0 0.9 0 0.5 0.1 1 0.1 0.5 0.1 0.9 0.3 0.5 0.1 0.9 0.3 0.4 0.2 0.8 0.4 0.4 0.2 0.8 0.5 0.4 0.2 0.7 0.5 0.4 0.3 0.7 0.6 0.7 0.7 1.2 1.5z"/>
			<path id="Path_2" fill-rule="evenodd" class="s0" d="m74.2 34.1q0.5 0.8 0.9 1.7 0.3 0.8 0.5 1.8 0.2 0.9 0.2 1.8v9.6h-3v-2.6q-0.2 0.2-0.5 0.4-0.3 0.2-0.6 0.5-0.3 0.2-0.6 0.3-0.3 0.2-0.6 0.4-0.5 0.2-1 0.4-0.5 0.2-1.1 0.4-0.5 0.1-1.1 0.2-0.6 0-1.1 0c-3.3 0.1-6.3-1.5-8.1-4.2-1.8-2.7-2.1-6.1-0.9-9.1 1.3-3 3.9-5.2 7.1-5.8 3.2-0.6 6.4 0.4 8.7 2.7q0.7 0.7 1.2 1.5zm-1.4 4.7q0-0.3-0.1-0.7-0.1-0.3-0.2-0.6-0.1-0.3-0.2-0.6-0.3-0.6-0.6-1.1-0.4-0.6-0.8-1-0.5-0.5-1-0.8-0.6-0.4-1.1-0.7-0.4-0.1-0.7-0.2-0.3-0.1-0.6-0.2-0.3 0-0.7-0.1-0.3 0-0.6 0-0.3 0-0.7 0-0.3 0.1-0.6 0.1-0.4 0.1-0.7 0.2-0.3 0.1-0.6 0.2-0.6 0.3-1.1 0.7-0.5 0.3-1 0.8-0.5 0.4-0.8 1-0.4 0.5-0.6 1.1-0.3 0.6-0.4 1.2-0.2 0.7-0.2 1.4 0 0.6 0.2 1.3 0.1 0.6 0.4 1.2 0.2 0.6 0.6 1.2 0.3 0.5 0.8 0.9 0.5 0.5 1 0.9 0.5 0.3 1.1 0.6 0.6 0.2 1.3 0.4 0.6 0.1 1.3 0.1 0.6 0 1.3-0.1 0.6-0.2 1.3-0.4 0.5-0.3 1.1-0.6 0.5-0.4 1-0.9 0.4-0.4 0.8-0.9 0.3-0.6 0.6-1.2 0.1-0.3 0.2-0.6 0.1-0.3 0.2-0.6 0.1-0.4 0.1-0.7 0-0.3 0-0.6 0-0.4 0-0.7z"/>
			<path id="Path_3" class="s0" d="m94.5 33.4q0.3 0.4 0.6 0.7 0.2 0.4 0.5 0.8 0.2 0.4 0.4 0.8 0.2 0.5 0.3 0.9 0.2 0.5 0.3 1 0.1 0.4 0.1 0.9 0.1 0.5 0.1 0.9v9.6h-3v-9.6q0-0.3 0-0.6-0.1-0.3-0.1-0.7-0.1-0.3-0.2-0.6-0.1-0.3-0.2-0.6-0.3-0.6-0.6-1.1-0.4-0.6-0.9-1-0.4-0.5-0.9-0.9-0.6-0.3-1.2-0.6-0.6-0.2-1.2-0.4-0.7-0.1-1.3-0.1-0.7 0-1.4 0.1-0.6 0.2-1.2 0.4-0.6 0.3-1.1 0.6-0.6 0.4-1 0.9-0.5 0.4-0.8 1-0.4 0.5-0.7 1.1-0.1 0.3-0.2 0.6-0.1 0.3-0.2 0.6 0 0.4-0.1 0.7 0 0.3 0 0.6v9.6h-2.9v-9.5q0-0.5 0-1 0-0.5 0.1-0.9 0.1-0.5 0.3-1 0.1-0.4 0.3-0.8 0.2-0.5 0.4-0.9 0.2-0.4 0.5-0.8 0.2-0.3 0.5-0.7 0.3-0.4 0.6-0.7 0.4-0.3 0.7-0.6 0.4-0.3 0.8-0.6 0.3-0.2 0.7-0.5 0.4-0.2 0.9-0.4 0.4-0.2 0.9-0.3 0.4-0.2 0.9-0.3 0.5-0.1 1-0.1 0.5 0 1 0 0.4 0 0.9 0 0.5 0.1 0.9 0.1 0.5 0.1 1 0.3 0.4 0.1 0.9 0.3 0.4 0.2 0.8 0.4 0.4 0.3 0.8 0.5 0.4 0.3 0.7 0.6 0.4 0.3 0.7 0.6 0.3 0.3 0.6 0.7z"/>
			<path id="Path_4" class="s0" d="m112.2 42.6q0.2 0.4 0.5 0.8 0.2 0.3 0.4 0.7 0.2 0.4 0.3 0.8 0.2 0.4 0.3 0.9 0.2 0.4 0.3 0.9 0 0.4 0.1 0.9 0 0.4 0 0.9v0.5h-2.9v-0.5q0-0.4-0.1-0.7 0-0.3-0.1-0.6 0-0.4-0.1-0.7-0.1-0.3-0.3-0.6-0.2-0.6-0.6-1.1-0.3-0.6-0.8-1-0.4-0.5-1-0.8-0.5-0.4-1.1-0.6-0.3-0.2-0.6-0.3-0.3-0.1-0.7-0.1-0.3-0.1-0.6-0.1-0.3-0.1-0.7-0.1h-0.6l-2.4 2.2v5h-3v-22.4h3v13.3l10.4-10.3 2.1 2.1-7.5 7.4q0.3 0 0.6 0.1 0.3 0.1 0.6 0.2 0.3 0.1 0.5 0.2 0.3 0.1 0.6 0.3 0.4 0.1 0.8 0.4 0.3 0.2 0.7 0.5 0.3 0.2 0.7 0.5 0.3 0.3 0.6 0.7 0.3 0.3 0.6 0.6z"/>
			<path id="Path_5" class="s0" d="m131.4 29.9h2.9v18.6c0.1 1.6-0.3 3.2-1.1 4.6-0.7 1.4-1.8 2.6-3.1 3.4-1.4 0.9-2.9 1.4-4.5 1.6-1.6 0.1-3.2-0.1-4.6-0.8q-0.9-0.3-1.6-0.8-0.8-0.5-1.5-1.2-0.6-0.7-1.1-1.4-0.5-0.8-0.9-1.6-0.2-0.5-0.3-0.9-0.2-0.5-0.3-1-0.1-0.5-0.1-0.9 0-0.5 0-1v-0.6h2.9v0.6q0 0.3 0 0.6 0.1 0.4 0.1 0.7 0.1 0.3 0.2 0.6 0.1 0.4 0.2 0.7 0.3 0.6 0.6 1.1 0.4 0.5 0.9 1 0.4 0.4 1 0.8 0.5 0.4 1.1 0.6 0.6 0.3 1.2 0.4 0.7 0.1 1.4 0.1 0.6 0 1.3-0.1 0.6-0.1 1.2-0.4 0.6-0.2 1.1-0.6 0.6-0.4 1-0.8 0.5-0.5 0.9-1 0.3-0.5 0.6-1.1 0.1-0.3 0.2-0.7 0.1-0.3 0.2-0.6 0-0.3 0.1-0.7 0-0.3 0-0.6v-2.1q-0.3 0.2-0.5 0.4-0.3 0.3-0.6 0.5-0.3 0.2-0.6 0.4-0.3 0.1-0.6 0.3-0.9 0.5-2 0.7-1 0.3-2 0.4-1.1 0-2.1-0.2-1.1-0.2-2-0.6-0.5-0.2-0.9-0.4-0.4-0.2-0.8-0.5-0.3-0.3-0.7-0.6-0.3-0.3-0.7-0.6-0.3-0.3-0.6-0.7-0.3-0.4-0.5-0.7-0.3-0.4-0.5-0.8-0.2-0.4-0.4-0.8-0.2-0.5-0.3-0.9-0.2-0.5-0.3-1-0.1-0.4-0.1-0.9 0-0.5 0-0.9v-9.6h2.9v9.6q0 0.3 0 0.6 0.1 0.3 0.1 0.7 0.1 0.3 0.2 0.6 0.1 0.3 0.2 0.6 0.3 0.6 0.6 1.2 0.4 0.5 0.9 0.9 0.4 0.5 1 0.9 0.5 0.3 1.1 0.6 0.6 0.2 1.2 0.4 0.7 0.1 1.3 0.1 0.7 0 1.4-0.1 0.6-0.2 1.2-0.4 0.6-0.3 1.1-0.6 0.6-0.4 1-0.9 0.5-0.4 0.9-0.9 0.3-0.6 0.6-1.2 0.1-0.3 0.2-0.6 0.1-0.3 0.2-0.6 0-0.4 0.1-0.7 0-0.3 0-0.6z"/>
			<path id="Path_6" class="s0" d="m155.3 38.8v0.6q0 0.5 0 1-0.1 0.5-0.2 0.9-0.1 0.5-0.2 1-0.2 0.4-0.3 0.9-0.2 0.4-0.5 0.8-0.2 0.4-0.4 0.8-0.3 0.4-0.6 0.7-0.3 0.4-0.6 0.7-0.4 0.4-0.7 0.6-0.4 0.3-0.8 0.6-0.4 0.2-0.8 0.5-0.4 0.2-0.8 0.4-0.4 0.1-0.9 0.3-0.4 0.1-0.9 0.2-0.5 0.1-0.9 0.2-0.5 0-1 0c-1.2 0-2.5-0.2-3.7-0.7-1.1-0.5-2.2-1.2-3.1-2.1-0.9-0.9-1.6-1.9-2.1-3.1-0.4-1.2-0.7-2.4-0.7-3.7v-9h3v9q0 0.3 0 0.7 0 0.3 0.1 0.6 0.1 0.4 0.2 0.7 0.1 0.3 0.2 0.6 0.3 0.6 0.6 1.1 0.4 0.5 0.8 1 0.5 0.5 1 0.8 0.6 0.4 1.2 0.6 0.6 0.3 1.2 0.4 0.7 0.2 1.3 0.2 0.7 0 1.3-0.2 0.7-0.1 1.3-0.4 0.6-0.2 1.1-0.6 0.6-0.3 1-0.8 0.5-0.5 0.8-1 0.4-0.5 0.6-1.1 0.2-0.3 0.3-0.6 0.1-0.3 0.1-0.7 0.1-0.3 0.1-0.6 0.1-0.4 0.1-0.7v-0.6c0 0 2.9 0 2.9 0z"/>
		</g>
		<path id="Path_7" fill-rule="evenodd" class="s1" d="m48.1 10.8q-0.1 0.1-0.2 0.2-0.2 0.1-0.3 0.1-0.2 0-0.3 0-0.2 0-0.3-0.1-0.1-0.1-0.2-0.2-0.1-0.1-0.1-0.2 0-0.2 0-0.3 0-0.1 0.1-0.2 0.2-0.7 0.5-1.4 0.2-0.6 0.4-1.3 0.2-0.7 0.4-1.4 0.2-0.7 0.3-1.3-2 1.3-4.2 2.4-2.1 1.1-4.4 1.9-2.3 0.8-4.6 1.3-2.4 0.5-4.8 0.6 0 0.1 0 0.2v21.3q0 0.1 0 0.2 0.5 0.2 0.8 0.5 0.4 0.3 0.7 0.7 0.3 0.4 0.4 0.9 0.2 0.5 0.2 1 0 0.3-0.1 0.6 0 0.4-0.2 0.7-0.1 0.3-0.3 0.6-0.2 0.2-0.5 0.5 0.7 0.5 1.1 1.2 0.3 0.7 0.3 1.6 0 0.8-0.3 1.6-0.4 0.7-1.1 1.2 0.3 0.2 0.5 0.5 0.2 0.3 0.3 0.6 0.2 0.3 0.2 0.6 0.1 0.3 0.1 0.7c0 2.2-2.4 3.9-5.5 3.9-3.2 0-5.6-1.7-5.6-3.9q0-0.4 0.1-0.7 0-0.3 0.2-0.6 0.1-0.3 0.3-0.6 0.2-0.3 0.5-0.5-0.7-0.5-1.1-1.2-0.3-0.8-0.3-1.6 0-0.9 0.3-1.6 0.4-0.7 1.1-1.2-0.3-0.3-0.5-0.5-0.2-0.3-0.3-0.6-0.2-0.3-0.2-0.7-0.1-0.3-0.1-0.6 0-0.5 0.2-1 0.1-0.5 0.4-0.9 0.3-0.4 0.7-0.7 0.4-0.3 0.8-0.5 0-0.1 0-0.2c0 0 0-21.4 0-21.4-8.7-0.7-16.7-3.6-23.1-9.4q-0.2-0.1-0.3-0.3-0.1-0.1-0.1-0.3 0-0.2 0-0.4 0.1-0.1 0.2-0.3 0.1-0.1 0.2-0.2 0.2-0.1 0.3-0.1 0.2 0 0.4 0 0.2 0.1 0.3 0.2c6.5 3.7 14.7 5.5 26 5.5h0.5c5.9 0 13.5-0.1 19.6-2.4q-0.7 0-1.4 0.1-0.7 0-1.4 0.1-0.7 0-1.4 0.1-0.7 0-1.4 0.1-0.1 0-0.2 0-0.2 0-0.3 0-0.1-0.1-0.2-0.2-0.1-0.1-0.2-0.2 0-0.2 0-0.3 0-0.2 0.1-0.3 0.1-0.2 0.2-0.3 0.1-0.1 0.2-0.2c3.4-2.3 9.1-1.8 9.9-0.8 0.9 1-0.1 6.7-3.3 9.4zm-21.9 21.2q0.2-0.1 0.4-0.1 0.2 0 0.4 0 0.2 0 0.4 0 0.2 0 0.4 0.1v-20.2q-0.1-0.1-0.2-0.2-0.1 0-0.2 0-0.1-0.1-0.2-0.1-0.1 0-0.2 0-0.2 0-0.3 0-0.1 0-0.2 0.1-0.1 0-0.2 0-0.1 0.1-0.1 0.2zm-2.2 3.7c0 0.5 1.2 1.3 3 1.3 1.7 0 2.9-0.8 2.9-1.3 0-0.5-1.2-1.3-2.9-1.3-1.8 0-3 0.8-3 1.3zm5.9 10.4c0-0.5-1.2-1.3-2.9-1.3-1.8 0-3 0.8-3 1.3 0 0.5 1.2 1.2 3 1.2 1.7 0.1 2.9-0.7 2.9-1.2zm0.3-5.2c0-0.8-1.4-1.7-3.2-1.7-1.9 0-3.3 0.9-3.3 1.7 0 0.7 1.4 1.6 3.3 1.6 1.8 0 3.2-0.9 3.2-1.6z"/>
	</g>
</svg>